<?xml version="1.0" encoding="utf-8"?>

<!-- License Agreement at http://iconmonstr.com/license/ -->

<!DOCTYPE svg PUBLIC "-//W3C//DTD SVG 1.1//EN" "http://www.w3.org/Graphics/SVG/1.1/DTD/svg11.dtd">
<svg version="1.1" xmlns="http://www.w3.org/2000/svg" xmlns:xlink="http://www.w3.org/1999/xlink" x="0px" y="0px"
	 width="512px" height="512px" viewBox="0 0 512 512" style="enable-background:new 0 0 512 512;" xml:space="preserve">
<path id="flip-chart-4" d="M179.683,393.334h45.197L166.171,462h-45.096L179.683,393.334z M342.834,153H205.5v17.167h137.334V153z
	 M239.833,462h34.333v-68.666h-34.333V462z M288.853,393.334L347.561,462h45.097l-58.608-68.666H288.853z M291.334,256H205.5v17.166
	h85.834V256z M342.834,221.667H205.5v17.167h137.334V221.667z M342.834,187.333H205.5V204.5h137.334V187.333z M445.834,101.5
	h-17.167v137.333C428.667,266.729,342.834,359,308.5,359H85.333V101.5H68.167V50h377.667V101.5z M394.334,101.5H119.667v223.166
	c0,0,171.163,0,183.368,0c35.658,0,22.632-68.666,22.632-68.666s68.667,14.166,68.667-21.089
	C394.334,223.603,394.334,101.5,394.334,101.5z M188.333,153h-17.167v17.167h17.167V153z M188.333,187.333h-17.167V204.5h17.167
	V187.333z M188.333,221.667h-17.167v17.167h17.167V221.667z M188.333,256h-17.167v17.166h17.167V256z"/>
</svg>
