<?xml version="1.0" encoding="utf-8"?>

<!-- License Agreement at http://iconmonstr.com/license/ -->

<!DOCTYPE svg PUBLIC "-//W3C//DTD SVG 1.1//EN" "http://www.w3.org/Graphics/SVG/1.1/DTD/svg11.dtd">
<svg version="1.1" xmlns="http://www.w3.org/2000/svg" xmlns:xlink="http://www.w3.org/1999/xlink" x="0px" y="0px"
	 width="512px" height="512px" viewBox="0 0 512 512" style="enable-background:new 0 0 512 512;" xml:space="preserve">
<path id="pdf-file-4-icon" d="M297.819,90v85.75h85.863V422H128.317V90H297.819z M322.819,50H88.317v412h335.365V150.75L322.819,50z
	 M186.104,342.587c7.044-6.646,18.974-13.177,35.477-19.428c7.466-14.757,14.882-31.021,20.729-45.463
	c-4.931-10.297-8.111-21.155-9.464-32.329c-5.077-41.96,42.433-38.842,35.206,0.241c-1.385,7.49-4.694,18.002-9.845,31.285
	c7.481,13.314,17.294,23.34,25.111,29.969c10.689-1.707,25.894-3.465,36.597-1.894c28.444,4.179,24.831,35.503-0.437,35.503
	c-13.222,0-29.778-10.304-40.144-18.23c-15.877,2.918-32.852,7.414-47.452,12.57c-4.66,8.978-10.921,20.4-16.499,28.436
	C192.108,396.792,161.432,365.862,186.104,342.587z M210.514,343.734c-5.149,2.597-12.402,7.068-16.313,11.373
	c-6.058,6.669-2.07,11.915,5.247,4.755C203.051,356.335,207.423,349.837,210.514,343.734z M300.934,319.261
	c4.782,3.23,11.35,6.592,18.546,6.729c8.396,0.156,7.679-5.318-1.669-6.691C313.742,318.7,307.876,318.69,300.934,319.261z
	 M240.914,316.663c6.681-2.232,21.088-5.584,24.699-6.43c-0.389-0.414-10.75-11.07-14.156-16.948
	C248.739,300.13,241.107,316.249,240.914,316.663z M247.323,235.555c-1.165,6.002,0.582,15.661,2.626,21.586
	c2.302-4.822,5.177-16.41,4.009-22.088C252.792,229.384,248.602,228.967,247.323,235.555z"/>
</svg>
