<?xml version="1.0" encoding="utf-8"?>

<!-- License Agreement at http://iconmonstr.com/license/ -->

<!DOCTYPE svg PUBLIC "-//W3C//DTD SVG 1.1//EN" "http://www.w3.org/Graphics/SVG/1.1/DTD/svg11.dtd">
<svg version="1.1" xmlns="http://www.w3.org/2000/svg" xmlns:xlink="http://www.w3.org/1999/xlink" x="0px" y="0px"
	 width="512px" height="512px" viewBox="0 0 512 512" style="enable-background:new 0 0 512 512;" xml:space="preserve">
<path id="flip-chart-2" d="M334.049,393.334L392.657,462h-45.097l-58.708-68.666H334.049z M360,153h-68.666v17.167H360V153z
	 M239.833,462h34.333v-68.666h-34.333V462z M121.067,462h45.113l58.708-68.666h-45.197L121.067,462z M360,187.333h-68.666V204.5H360
	V187.333z M360,221.667h-68.666v17.167H360V221.667z M214.083,273.166c30.243,0,55.02-22.413,59.211-51.5H205.5v-67.803
	c-29.086,4.2-51.5,28.977-51.5,59.22C154,246.269,180.898,273.166,214.083,273.166z M222.667,153.863V204.5h50.628
	C269.506,178.247,248.92,157.652,222.667,153.863z M360,256h-68.666v17.166H360V256z M445.834,101.5h-17.167V359H85.333V101.5
	H68.167V50h377.667V101.5z M394.334,101.5H119.667v223.166h274.667V101.5z"/>
</svg>
