<?xml version="1.0" encoding="utf-8"?>

<!-- License Agreement at http://iconmonstr.com/license/ -->

<!DOCTYPE svg PUBLIC "-//W3C//DTD SVG 1.1//EN" "http://www.w3.org/Graphics/SVG/1.1/DTD/svg11.dtd">
<svg version="1.1" xmlns="http://www.w3.org/2000/svg" xmlns:xlink="http://www.w3.org/1999/xlink" x="0px" y="0px"
	 width="512px" height="512px" viewBox="0 0 512 512" style="enable-background:new 0 0 512 512;" xml:space="preserve">
<path id="zip-12-icon" d="M238.816,153h-51.466v-17.167h51.466V153z M238.816,170.167h-51.466v17.167h51.466V170.167z
	 M238.816,101.5h-51.466v17.167h51.466V101.5z M238.816,204.5h-51.466v17.167h51.466V204.5z M238.816,238.833h-51.466V256h51.466
	V238.833z M213.084,393.334c-27.88,0-48.382-15.826-41.626-42.918l15.893-77.25h51.466l15.893,77.25
	C261.448,377.475,240.996,393.334,213.084,393.334z M238.783,360.022c0-23.017-51.433-22.497-51.433,0.05
	C187.351,381.783,238.783,381.934,238.783,360.022z M245.053,84.333c71.332,0,45.281,103,45.281,103s103-28.332,103,42.17
	c0,31.743,0,198.162,0,198.162H118.667V84.333C237.006,84.333,213,84.333,245.053,84.333z M259.252,50H84.334v412h343.332V215.045
	C427.666,173.989,313.535,50,259.252,50z"/>
</svg>
